<?xml version="1.0" standalone="no"?>
<!DOCTYPE svg PUBLIC "-//W3C//DTD SVG 20010904//EN"
 "http://www.w3.org/TR/2001/REC-SVG-20010904/DTD/svg10.dtd">
<svg version="1.0" xmlns="http://www.w3.org/2000/svg"
 width="1800.000000pt" height="1440.000000pt" viewBox="0 0 1800.000000 1440.000000"
 preserveAspectRatio="xMidYMid meet">

<g transform="translate(0.000000,1440.000000) scale(0.100000,-0.100000)"
fill="#000000" stroke="none">
<path d="M9647 12433 c-4 -3 -7 -16 -7 -28 0 -11 -5 -26 -11 -32 -20 -20 11
-103 39 -103 4 0 6 20 4 46 -3 31 1 50 12 63 15 16 14 19 -7 39 -13 12 -27 19
-30 15z"/>
<path d="M9571 12239 c-6 -18 -9 -35 -6 -37 3 -3 5 0 5 7 0 8 6 11 16 7 10 -4
13 -2 8 7 -4 6 2 3 14 -7 25 -22 30 -6 7 18 -9 8 -15 19 -15 23 1 4 -3 9 -8
11 -5 1 -15 -12 -21 -29z"/>
<path d="M15118 9863 c7 -3 16 -2 19 1 4 3 -2 6 -13 5 -11 0 -14 -3 -6 -6z"/>
<path d="M2688 9843 c7 -3 16 -2 19 1 4 3 -2 6 -13 5 -11 0 -14 -3 -6 -6z"/>
<path d="M15215 9835 c116 -36 263 -132 370 -240 118 -120 194 -259 245 -446
l30 -109 0 -3007 0 -3006 -26 -101 c-90 -346 -324 -599 -654 -705 l-94 -31
-6153 0 -6152 0 -80 25 c-156 49 -281 123 -392 230 -165 159 -246 318 -288
564 l-21 124 0 2903 c0 2549 2 2917 15 3005 54 356 255 620 585 766 83 36 81
45 -2 13 -127 -49 -246 -127 -343 -224 -148 -149 -238 -335 -264 -546 -15
-115 -15 -5957 -1 -6085 24 -212 114 -399 270 -556 153 -155 347 -250 560
-275 87 -10 12122 -11 12230 -1 443 42 788 372 855 818 22 146 22 5951 0 6104
-44 308 -225 569 -497 714 -77 42 -185 82 -215 80 -10 -1 0 -7 22 -14z"/>
<path d="M6076 8219 c-134 -20 -249 -106 -307 -232 -31 -66 -33 -81 -37 -193
-6 -172 24 -268 114 -364 86 -92 200 -126 397 -117 139 6 198 23 315 89 l72
42 0 193 0 193 -210 0 -210 0 0 -90 0 -90 90 0 90 0 0 -49 0 -49 -52 -22
c-108 -47 -228 -34 -282 31 -14 17 -32 53 -41 81 -17 59 -20 185 -5 239 31
111 132 175 233 148 44 -11 107 -63 107 -87 0 -10 7 -13 22 -9 12 3 68 14 124
23 56 9 107 20 114 24 17 11 -31 108 -76 153 -20 20 -56 45 -81 57 -76 36
-243 49 -377 29z"/>
<path d="M7498 8216 c-157 -34 -251 -166 -218 -306 24 -102 120 -170 307 -219
60 -15 123 -36 141 -45 57 -30 67 -76 26 -125 -66 -79 -216 -35 -245 71 l-10
40 -112 -6 c-150 -10 -150 -10 -142 -54 19 -105 75 -181 164 -224 63 -31 73
-32 208 -36 125 -4 151 -2 214 18 61 18 81 30 130 79 68 69 95 139 86 226 -15
143 -96 208 -344 271 -145 38 -173 52 -173 90 0 39 37 64 96 64 61 0 99 -24
121 -78 l14 -35 91 7 c50 3 109 6 130 6 39 0 40 0 33 33 -10 48 -43 119 -68
145 -73 78 -280 114 -449 78z"/>
<path d="M12650 8219 c-131 -22 -265 -127 -311 -246 -27 -73 -38 -256 -19
-342 17 -80 66 -165 121 -215 92 -83 188 -111 359 -104 134 6 202 27 278 88
89 70 136 171 148 319 29 353 -208 559 -576 500z m193 -213 c76 -32 111 -104
110 -231 0 -106 -14 -162 -50 -206 -77 -91 -234 -74 -293 32 -20 36 -25 61
-28 139 -6 143 24 222 98 261 41 22 117 25 163 5z"/>
<path d="M3890 7766 l0 -446 135 0 135 0 2 183 c3 196 -1 183 52 178 34 -3 77
-59 156 -205 l85 -156 153 0 c83 0 152 3 152 6 0 13 -134 260 -164 303 -17 23
-49 52 -71 63 l-40 21 55 24 c70 31 97 56 126 118 60 126 12 275 -106 329 -42
20 -66 21 -357 24 l-313 3 0 -445z m482 254 c34 -16 54 -63 42 -97 -17 -49
-54 -65 -158 -71 l-96 -5 0 90 c0 49 2 92 5 95 10 10 181 1 207 -12z"/>
<path d="M4858 8008 c-2 -112 -2 -312 0 -445 l3 -243 374 0 375 0 0 100 0 100
-240 0 -240 0 0 90 0 90 215 0 215 0 0 90 0 90 -215 0 -216 0 3 73 3 72 228 3
227 2 0 90 0 90 -365 0 -365 0 -2 -202z"/>
<path d="M6810 7765 l0 -445 135 0 135 0 0 445 0 445 -135 0 -135 0 0 -445z"/>
<path d="M8130 8100 l0 -110 140 0 140 0 0 -335 0 -335 135 0 135 0 0 335 0
334 143 3 142 3 3 108 3 107 -421 0 -420 0 0 -110z"/>
<path d="M9090 7766 l0 -446 140 0 140 0 0 180 0 180 34 0 c53 0 78 -29 170
-200 l85 -155 299 -3 299 -2 22 75 22 76 155 -3 156 -3 22 -70 22 -70 142 -3
c78 -1 142 0 142 4 0 4 -45 127 -99 273 -54 146 -128 344 -162 438 l-64 173
-155 0 -155 0 -139 -373 c-77 -204 -152 -403 -166 -441 l-27 -69 -68 129 c-85
161 -125 217 -172 239 l-38 18 45 16 c59 21 132 94 148 147 17 57 15 147 -4
192 -19 47 -58 88 -109 115 -38 21 -54 22 -362 25 l-323 3 0 -445z m504 243
c23 -18 27 -27 24 -67 -4 -67 -31 -83 -152 -90 l-96 -5 0 92 0 91 99 0 c85 0
102 -3 125 -21z m915 -191 c22 -76 41 -142 41 -148 0 -6 -37 -10 -95 -10 -52
0 -95 4 -95 8 0 4 9 35 19 68 11 32 32 99 46 148 15 48 30 84 35 80 4 -5 26
-71 49 -146z"/>
<path d="M10890 8105 l0 -105 140 0 140 0 0 -340 0 -340 135 0 135 0 2 338 3
337 138 3 137 3 0 104 0 105 -415 0 -415 0 0 -105z"/>
<path d="M11870 7765 l0 -445 135 0 135 0 0 445 0 445 -135 0 -135 0 0 -445z"/>
<path d="M13380 7765 l0 -445 130 0 130 0 0 241 c0 132 4 238 9 235 4 -3 80
-111 167 -241 l159 -235 130 3 130 2 1 443 2 442 -129 0 -129 0 0 -242 -1
-243 -22 27 c-12 15 -87 124 -167 242 l-145 215 -132 1 -133 0 0 -445z"/>
<path d="M7318 6720 c-69 -11 -143 -47 -186 -91 -46 -47 -65 -105 -60 -183 5
-85 39 -136 123 -183 56 -31 85 -41 254 -89 80 -23 121 -55 121 -96 0 -42 -17
-68 -55 -84 -91 -38 -189 7 -212 96 l-9 35 -115 -3 c-153 -5 -148 -3 -138 -58
12 -63 56 -140 103 -180 64 -55 126 -69 306 -69 146 0 158 2 210 26 78 37 114
71 149 141 59 118 33 258 -62 328 -52 38 -122 65 -263 100 -126 32 -150 42
-159 70 -14 45 29 80 97 80 57 0 103 -29 120 -76 l13 -37 89 7 c49 3 107 6
129 6 l40 0 -7 41 c-15 93 -88 176 -181 205 -60 19 -227 26 -307 14z"/>
<path d="M9742 6720 c-113 -24 -217 -94 -269 -181 -50 -84 -66 -162 -61 -305
4 -116 5 -125 41 -197 45 -92 121 -165 205 -198 51 -21 74 -23 212 -24 139 0
161 2 212 23 118 48 212 166 238 300 18 91 8 263 -19 332 -44 114 -124 191
-239 232 -65 23 -248 33 -320 18z m201 -214 c41 -17 71 -50 93 -101 25 -56 24
-215 0 -278 -56 -148 -254 -157 -328 -14 -17 34 -22 60 -22 137 -1 52 3 112 7
133 9 44 59 105 102 123 39 17 108 17 148 0z"/>
<path d="M6610 6265 l0 -445 135 0 135 0 0 445 0 445 -135 0 -135 0 0 -445z"/>
<path d="M8400 6265 l0 -445 130 0 130 0 0 235 c0 129 4 235 8 235 4 0 80
-106 167 -235 l160 -235 132 0 133 0 0 445 0 445 -130 0 -130 0 0 -241 c0
-132 -4 -238 -8 -235 -4 2 -80 110 -167 240 l-160 235 -132 1 -133 0 0 -445z"/>
<path d="M10371 6703 c0 -5 44 -204 97 -443 l98 -435 134 -3 135 -3 74 268
c41 148 76 272 79 277 9 15 18 -14 93 -281 l72 -263 134 0 c73 0 133 1 133 3
0 1 45 201 98 445 l98 442 -128 0 c-124 0 -128 -1 -133 -22 -3 -13 -23 -120
-46 -238 -22 -118 -42 -216 -44 -219 -7 -6 -10 6 -78 249 l-62 225 -131 3
-131 3 -62 -223 c-34 -123 -65 -231 -68 -241 -2 -10 -6 -17 -8 -15 -2 2 -22
102 -45 223 -22 121 -43 228 -46 238 -5 15 -20 17 -135 17 -71 0 -129 -3 -128
-7z"/>
<path d="M8145 4870 c-316 -34 -525 -212 -597 -508 -30 -123 -30 -331 1 -456
59 -244 222 -416 456 -481 40 -12 116 -19 226 -22 196 -6 293 9 404 61 183 87
296 228 347 434 31 124 30 371 0 485 -78 287 -285 454 -602 487 -111 11 -131
11 -235 0z m226 -345 c119 -42 180 -144 195 -324 8 -92 -9 -233 -37 -308 -41
-108 -131 -165 -259 -166 -177 -1 -275 100 -300 310 -13 103 -2 238 25 313 31
88 85 144 170 177 43 17 155 16 206 -2z"/>
<path d="M9693 4870 c-225 -24 -364 -106 -435 -255 -30 -63 -33 -79 -33 -160
0 -76 4 -99 27 -146 68 -147 192 -222 494 -299 160 -40 215 -63 251 -102 47
-50 50 -104 10 -162 -59 -84 -251 -88 -340 -8 -26 23 -64 100 -73 146 l-7 38
-66 -6 c-36 -3 -120 -8 -186 -11 -176 -9 -169 -6 -161 -66 9 -67 41 -152 81
-214 106 -164 257 -225 563 -225 182 0 275 16 382 67 182 87 292 289 261 481
-34 211 -170 318 -512 402 -240 59 -251 62 -285 93 -77 67 -6 167 118 167 103
0 176 -47 205 -132 l18 -51 150 7 c83 3 176 9 208 13 l59 6 -6 33 c-26 134
-87 236 -178 294 -78 51 -161 76 -289 90 -111 11 -148 11 -256 0z"/>
<path d="M5190 4855 c-249 -53 -423 -216 -484 -452 -39 -150 -39 -375 0 -526
42 -164 180 -342 315 -405 115 -55 182 -66 389 -67 152 0 196 3 245 18 141 44
255 132 326 255 37 63 86 198 76 208 -12 12 -370 114 -376 107 -4 -4 -15 -33
-25 -65 -24 -72 -80 -145 -131 -172 -48 -25 -169 -34 -227 -16 -59 17 -123 81
-148 146 -27 72 -43 220 -34 319 18 223 118 339 289 339 58 0 79 -5 123 -28
55 -31 94 -73 118 -131 8 -19 19 -35 24 -35 16 0 374 81 378 85 3 2 -16 47
-42 99 -87 180 -222 286 -409 321 -98 19 -319 18 -407 0z"/>
<path d="M6280 4135 l0 -715 565 0 565 0 0 175 0 175 -345 0 -345 0 0 540 0
540 -220 0 -220 0 0 -715z"/>
<path d="M10690 4135 l0 -715 600 0 600 0 0 160 0 160 -380 0 -380 0 0 145 0
145 345 0 345 0 0 145 0 145 -345 0 -345 0 0 115 0 115 370 0 370 0 0 150 0
150 -590 0 -590 0 0 -715z"/>
<path d="M12140 4134 l0 -715 388 3 c325 4 400 7 467 22 123 28 199 68 280
150 135 136 185 298 179 577 -7 275 -101 478 -274 589 -121 77 -215 90 -676
90 l-364 0 0 -716z m715 367 c28 -12 62 -34 77 -48 63 -60 97 -243 79 -423
-13 -118 -39 -187 -87 -230 -45 -39 -88 -50 -226 -57 l-118 -6 0 398 0 398
113 -5 c87 -3 123 -9 162 -27z"/>
<path d="M2615 2900 c3 -5 10 -10 16 -10 5 0 9 5 9 10 0 6 -7 10 -16 10 -8 0
-12 -4 -9 -10z"/>
<path d="M14068 2753 c123 -2 321 -2 440 0 119 1 19 2 -223 2 -242 0 -340 -1
-217 -2z"/>
<path d="M14731 2756 c8 -8 88 -10 95 -3 4 4 -17 7 -46 7 -29 0 -51 -2 -49 -4z"/>
</g>
</svg>
